<svg xmlns="http://www.w3.org/2000/svg" viewBox="0 0 22.73 18.93">
  <title>radio</title>
  <circle cx="11.22" cy="9.55" r="2.52" style="fill:none;"/>
  <path d="M14.12,3.81c.41.23,3.61,2.09,3.66,5.74A6.68,6.68,0,0,1,14,15.46" style="fill:none;"/>
  <path d="M17.28.41C18.09,1,22.17,4,22.23,9.27a11,11,0,0,1-5.17,9.24" style="fill:none;"/>
  <path d="M8.61,3.81C8.2,4,5,5.9,5,9.55a6.69,6.69,0,0,0,3.73,5.91" style="fill:none;"/>
  <path d="M5.45.41C4.64,1,.56,4,.5,9.27a10.93,10.93,0,0,0,5.16,9.24" style="fill:none;"/>
</svg>
