<svg xmlns="http://www.w3.org/2000/svg" viewBox="0 0 23.73 19.77">
  <title>radio-selected</title>
  <circle cx="11.86" cy="9.87" r="2.07" style="fill:#fff;"/>
  <path d="M14.62,4.22c.41.23,3.61,2.09,3.66,5.74a6.68,6.68,0,0,1-3.74,5.91" style="fill:none;"/>
  <path d="M17.78.82c.81.56,4.89,3.56,4.95,8.86a11,11,0,0,1-5.17,9.24" style="fill:none;"/>
  <path d="M9.11,4.22C8.7,4.45,5.49,6.31,5.45,10a6.69,6.69,0,0,0,3.73,5.91" style="fill:none;"/>
  <path d="M6,.82C5.14,1.38,1.06,4.38,1,9.68a10.93,10.93,0,0,0,5.16,9.24" style="fill:none;"/>
</svg>
